classDiagram
    Server "1" -- "*" Engine
    Engine "1" <|-- "1" VoluntaryEngine
    Engine "1" <|-- "1" ConfiguratorEngine
    Engine "1" <|-- "1" ConsumerEngine
    <<interface>> Engine
    class Engine {
        handleRequest()*
    }
    class Server {
        + getUserRequest() : String
        + sendUserResponse(JSON request)
    }
    class VoluntaryEngine {
    }
